<svg width="429" height="241" viewBox="0 0 429 241" fill="none" xmlns="http://www.w3.org/2000/svg">
<path d="M55.7627 231.169V11.9313C56.94 5.63138 62.04 0.73143 66.3567 1.01143L214.302 1.01143V10.6713C211.557 10.6713 208.81 15.7113 214.302 16.9712V22.0112H73.422V210.169H214.696M55.7627 231.169H2C5.79347 233.269 21.8569 237.973 55.7627 239.989H214.696V234.529M55.7627 231.169H177.416M214.696 234.529H182.517C181.471 234.669 178.985 234.193 177.416 231.169M214.696 234.529V231.169H177.416M97.3601 203.029H82.4478M82.4478 194.209H213.911M213.911 185.389H82.4478M82.4478 178.249H97.3601M82.4478 170.689H214.696M187.619 162.71H82.4478M82.4478 155.15H97.3601M105.601 33.771H134.641M185.264 33.771H213.911M214.302 43.4309H82.4478M82.4478 57.7108H214.302M82.4478 50.5708H97.3601M109.918 50.5708H117.766H125.615M138.565 50.5708H153.87M166.82 50.5708H182.517M194.682 50.5708H210.379M82.4478 67.7906L205.67 139.19M82.4478 67.7906V139.19M82.4478 67.7906H205.67M205.67 139.19V67.7906M205.67 139.19H82.4478M205.67 67.7906L82.4478 139.19" stroke="black"/>
<path d="M354.793 22.0112H213.913L213.519 210.169H354.793V22.0112Z" fill="#EFEFEF" stroke="black"/>
<path d="M362.643 1.02281L214.698 1.02281V10.6827C217.443 10.6827 220.19 15.7226 214.698 16.9826V22.0226H355.578V210.18H214.304V231.18V234.54V240H373.237C407.143 237.984 423.207 233.28 427 231.18H373.237V11.9426C372.06 5.64276 366.96 0.742813 362.643 1.02281Z" fill="#D9D9D9"/>
<path d="M223.33 67.802V139.201H346.552V67.802H223.33Z" fill="#D9D9D9"/>
<path d="M283.371 155.57H341.058V206.389H283.371V155.57Z" fill="#D9D9D9"/>
<path d="M299.853 26.6311H336.741C344.904 32.007 340.143 36.711 336.741 38.3909H299.853C292.946 33.015 296.975 28.3111 299.853 26.6311Z" fill="#D9D9D9"/>
<path d="M228.039 34.611L226.861 30.831L225.88 34.611H228.039Z" fill="#D9D9D9"/>
<path d="M237.065 33.351L232.355 29.991V34.191L237.065 33.351Z" fill="#D9D9D9"/>
<path d="M373.237 231.18V11.9426C372.06 5.64276 366.96 0.742813 362.643 1.02281L214.698 1.02281V10.6827C217.443 10.6827 220.19 15.7226 214.698 16.9826V22.0226H355.578V210.18H214.304V231.18M373.237 231.18H427C423.207 233.28 407.143 237.984 373.237 240H214.304V234.54M373.237 231.18H251.584M214.304 234.54H246.483C247.529 234.68 250.015 234.204 251.584 231.18M214.304 234.54V231.18M251.584 231.18H214.304M214.698 43.4423H346.552M216.266 38.3909V30.831L219.013 33.351L222.152 30.831V38.3909M224.899 38.3909L225.88 34.611M229.216 38.3909L228.039 34.611M228.039 34.611L226.861 30.831L225.88 34.611M228.039 34.611H225.88M232.355 38.3909V34.191M232.355 34.191V29.991L237.065 33.351L232.355 34.191ZM232.355 34.191L238.242 38.3909M318.69 33.351C317.905 33.631 316.178 33.855 315.55 32.511C314.922 31.167 316.858 30.271 317.905 29.991C319.789 30.999 319.213 32.651 318.69 33.351ZM318.69 33.351C318.821 34.191 318.376 36.039 315.55 36.711M346.552 67.802V139.201H223.33V67.802H346.552ZM341.058 155.57H283.371V206.389H341.058V155.57ZM336.741 26.6311H299.853C296.975 28.3111 292.946 33.015 299.853 38.3909H336.741C340.143 36.711 344.904 32.007 336.741 26.6311ZM306.524 29.991V35.871L310.841 33.351L306.524 29.991Z" stroke="black"/>
</svg>
