<svg width="50" height="42" viewBox="0 0 50 42" fill="none" xmlns="http://www.w3.org/2000/svg">
<path fill-rule="evenodd" clip-rule="evenodd" d="M3.43725 17.8382C16.859 11.9906 25.8089 8.13545 30.2871 6.27281C43.073 0.954667 45.7298 0.0308476 47.4614 0.000324826C47.8423 -0.00637973 48.6939 0.088007 49.2455 0.535621C49.7114 0.913576 49.8396 1.42412 49.9007 1.78246C49.9621 2.14081 50.0385 2.9571 49.9778 3.59494C49.2851 10.8751 46.2869 28.5421 44.7617 36.696C44.1162 40.1462 42.8455 41.303 41.6153 41.4162C38.9416 41.6623 36.9112 39.6494 34.3216 37.9519C30.2696 35.2955 27.9803 33.6421 24.0471 31.05C19.5013 28.0544 22.4482 26.408 25.0387 23.7173C25.7166 23.0132 37.4969 12.2981 37.7248 11.3261C37.7535 11.2045 37.7798 10.7514 37.5105 10.5121C37.2414 10.2728 36.8441 10.3547 36.5573 10.4197C36.151 10.512 29.6775 14.7907 17.1372 23.2559C15.2997 24.5175 13.6354 25.1323 12.1443 25.1C10.5004 25.0646 7.33819 24.1707 4.98744 23.4064C2.10416 22.4694 -0.187433 21.9737 0.012113 20.3821C0.116045 19.553 1.25775 18.705 3.43725 17.8382Z" fill="white"/>
</svg>
